<svg width="393" height="462" viewBox="0 0 393 462" fill="none" xmlns="http://www.w3.org/2000/svg">
<g opacity="0.4">
<path d="M66.623 132.667C66.623 132.667 17.1917 168.863 22.0511 206.092C26.9104 243.322 107.043 244.892 81.5107 254.063C55.9786 263.234 15.1162 228.244 15.1162 228.244C15.1162 228.244 0.513995 238.805 11.7371 290.952C22.9813 343.087 117.011 319.601 117.011 319.601C205.761 454.276 252.611 337.102 252.667 322.681C252.723 308.259 179.057 306.273 184.378 298.331C189.679 290.4 230.653 310.771 255.789 306.11C280.925 301.449 306.981 231.602 301.045 212.628C295.108 193.654 232.912 245.006 233.285 224.042C233.659 203.079 315.728 220.564 299.279 148.632C282.831 76.6994 287.337 85.0956 255.901 137.319C224.487 189.531 182.933 167.821 209.915 152.752C309.75 96.9768 240.854 10.3656 240.854 10.3656C121.69 53.9822 173.077 146.379 157.332 145.039C141.62 143.709 170.577 42.2211 151.073 60.4353C131.57 78.6494 101.611 57.4346 81.6304 96.4758C61.662 135.538 126.261 197.918 100.387 207.915C74.5124 217.913 66.6019 132.679 66.6019 132.679L66.623 132.667ZM212.353 247.895C232.357 243.212 248.645 250.005 246.137 260.865C243.629 271.725 203.098 270.203 203.098 270.203C189.212 264.646 192.337 252.557 212.353 247.895ZM133.263 169.918C149.829 187.405 151.298 196.411 149.949 204.33C149.949 204.33 127.552 196.258 123.353 180.358C119.143 164.436 116.675 152.442 133.263 169.918ZM81.8061 277.173C94.2087 282.005 108.495 283.658 100.943 293.063C100.943 293.063 79.4412 301.569 70.8088 290.432C62.1646 279.274 69.4035 272.34 81.8061 277.173Z" fill="#B7D331"/>
<path d="M21.436 461.33C21.436 461.33 142.425 335.502 227.272 37.4503" stroke="#02604D" stroke-width="0.5" stroke-linecap="round" stroke-linejoin="round"/>
</g>
</svg>
