<?xml version="1.0" ?><svg id="Layer_1_1_" style="enable-background:new 0 0 64 64;fill:#333333;" version="1.1" viewBox="0 0 64 64" xml:space="preserve" xmlns="http://www.w3.org/2000/svg" xmlns:xlink="http://www.w3.org/1999/xlink"><g><path d="M63,49V1H1v48h8.111c1.263,1.235,2.988,2,4.889,2h5V33h-2v-1c0-8.271,6.729-15,15-15s15,6.729,15,15v1h-2v18h4v2   c0,2.757-2.243,5-5,5h-6.142c-0.447-1.72-1.999-3-3.858-3h-4c-2.206,0-4,1.794-4,4s1.794,4,4,4h4c1.859,0,3.411-1.28,3.858-3H44   c3.859,0,7-3.14,7-7v-2.08c1.502-0.216,2.853-0.906,3.889-1.92H63z M34,61h-4c-1.103,0-2-0.897-2-2s0.897-2,2-2h4   c1.103,0,2,0.897,2,2S35.103,61,34,61z M61,3v6H3V3H61z M17,49h-3c-2.757,0-5-2.243-5-5v-4c0-2.414,1.721-4.434,4-4.899V47h2V35h2   V49z M32,15c-9.374,0-17,7.626-17,17v1h-1c-3.859,0-7,3.14-7,7v4c0,1.075,0.251,2.089,0.685,3H3V11h58v36h-4.685   C56.749,46.089,57,45.075,57,44v-4c0-3.86-3.141-7-7-7h-1v-1C49,22.626,41.374,15,32,15z M50,49h-3V35h2v12h2V35.101   c2.279,0.465,4,2.484,4,4.899v4C55,46.757,52.757,49,50,49z"/><rect height="2" width="2" x="5" y="5"/><rect height="2" width="2" x="9" y="5"/><rect height="2" width="2" x="13" y="5"/><path d="M44,42c0-6.617-5.383-12-12-12s-12,5.383-12,12s5.383,12,12,12S44,48.617,44,42z M27.801,51.063   C28.671,50.379,29.748,50,30.882,50c0.886,0,1.773-0.209,2.565-0.606C33.963,49.136,34.54,49,35.118,49h1.303   c0.724,0,1.435,0.225,2.039,0.62C36.716,51.101,34.462,52,32,52C30.499,52,29.08,51.658,27.801,51.063z M41.979,41.585   C41.2,42.485,40.103,43,38.915,43C37.308,43,36,41.692,36,40.084c0-0.889-0.242-1.763-0.7-2.529l-1.884-3.139   C33.144,33.962,33,33.443,33,32.916c0-0.285,0.06-0.566,0.15-0.844C37.987,32.629,41.775,36.65,41.979,41.585z M25.438,34.473   c0.355,0.317,0.695,0.648,0.995,1.008l0.845,1.013C27.743,37.054,28,37.763,28,38.491v1.391c0,1.071,0.595,2.034,1.553,2.513   C29.829,42.532,30,42.81,30,43.118C30,43.604,29.604,44,29.118,44h-2.236C26.396,44,26,43.604,26,43.118v-0.236   C26,41.293,24.707,40,23.118,40c-0.297,0-0.59-0.059-0.879-0.15C22.707,37.725,23.853,35.856,25.438,34.473z M22,42   c0-0.046,0.006-0.09,0.007-0.135C22.372,41.949,22.742,42,23.118,42C23.604,42,24,42.396,24,42.882v0.236   C24,44.707,25.293,46,26.882,46h2.236C30.707,46,32,44.707,32,43.118c0-1.071-0.595-2.034-1.553-2.513   C30.171,40.468,30,40.19,30,39.882v-1.391c0-1.194-0.421-2.357-1.186-3.276L27.969,34.2c-0.267-0.32-0.555-0.624-0.857-0.915   c1.197-0.674,2.544-1.109,3.979-1.239C31.037,32.333,31,32.622,31,32.916c0,0.889,0.242,1.763,0.7,2.529l1.884,3.139   C33.856,39.038,34,39.557,34,40.084C34,42.795,36.205,45,38.915,45c0.999,0,1.953-0.244,2.805-0.692   c-0.338,1.423-0.978,2.727-1.853,3.843c-0.002-0.001-0.003-0.003-0.005-0.004C38.877,47.408,37.654,47,36.421,47h-1.303   c-0.887,0-1.774,0.209-2.565,0.605C32.037,47.864,31.459,48,30.882,48c-1.828,0-3.547,0.706-4.871,1.989   C23.581,48.163,22,45.266,22,42z"/><rect height="2" width="10" x="5" y="13"/><rect height="2" width="10" x="5" y="17"/><rect height="2" width="2" x="13" y="21"/><rect height="2" width="6" x="5" y="21"/><rect height="2" width="10" x="49" y="13"/><rect height="2" width="10" x="49" y="17"/><rect height="2" width="2" x="57" y="21"/><rect height="2" width="6" x="49" y="21"/></g></svg>