<svg width="179" height="146" viewBox="0 0 179 146" fill="none" xmlns="http://www.w3.org/2000/svg">
<path d="M131.704 49.4156L139.129 1.38015C139.385 -0.252989 141.497 -0.515711 142.045 1.01802C145.893 11.7612 152.415 36.8618 136.504 52.1849L131.704 49.4156Z" fill="#B7D331"/>
<path d="M128.382 60.6411L83.1694 78.6695C81.6331 79.2802 80.3316 77.5973 81.3771 76.3476C88.6885 67.5784 107.024 49.2092 128.332 55.1027L128.382 60.6411Z" fill="#B7D331"/>
<path d="M140.587 57.1699L178.374 87.8161C179.662 88.8599 178.822 90.8125 177.215 90.5143C165.985 88.4054 140.985 81.3616 135.765 59.9179L140.587 57.177V57.1699Z" fill="#B7D331"/>
<path d="M136.515 56.9771L128.725 57.6973L136.728 143.998L144.519 143.278L136.515 56.9771Z" fill="#B7D331"/>
<path d="M139.983 59.7793C141.547 55.4526 139.303 50.6789 134.969 49.117C130.635 47.555 125.853 49.7962 124.289 54.1229C122.724 58.4496 124.969 63.2233 129.303 64.7852C133.637 66.3472 138.418 64.1059 139.983 59.7793Z" fill="#AABC02"/>
<path d="M137.948 59.1792C136.718 62.3815 133.112 63.9863 129.904 62.7579C126.696 61.5295 125.089 57.9295 126.319 54.7271C127.55 51.5247 131.156 49.92 134.363 51.1484C137.571 52.3768 139.178 55.9768 137.948 59.1792Z" fill="white"/>
<path opacity="0.25" d="M109.122 65.8818L96.832 70.9375" stroke="#89960B" stroke-width="0.67" stroke-miterlimit="10" stroke-linecap="round"/>
<path opacity="0.25" d="M121.924 60.6211L113.752 63.9797" stroke="#89960B" stroke-width="0.67" stroke-miterlimit="10" stroke-linecap="round"/>
<path opacity="0.25" d="M148.46 67.117L142.542 62.459" stroke="#89960B" stroke-width="0.67" stroke-miterlimit="10" stroke-linecap="round"/>
<path opacity="0.25" d="M161.867 77.6756L151.426 69.4531" stroke="#89960B" stroke-width="0.67" stroke-miterlimit="10" stroke-linecap="round"/>
<path opacity="0.25" d="M172.734 86.2389L165.8 80.7715" stroke="#89960B" stroke-width="0.67" stroke-miterlimit="10" stroke-linecap="round"/>
<path opacity="0.25" d="M136.696 30.0596L134.648 43.1744" stroke="#89960B" stroke-width="0.67" stroke-miterlimit="10" stroke-linecap="round"/>
<path opacity="0.25" d="M138.83 16.4053L137.464 25.1248" stroke="#89960B" stroke-width="0.67" stroke-miterlimit="10" stroke-linecap="round"/>
<path opacity="0.25" d="M127.643 55.2598C128.61 52.7533 131.426 51.4965 133.937 52.4622" stroke="#89960B" stroke-width="0.52" stroke-miterlimit="10" stroke-linecap="round"/>
<path opacity="0.25" d="M136.739 58.7461C135.771 61.2526 132.955 62.5094 130.444 61.5437" stroke="#89960B" stroke-width="0.52" stroke-miterlimit="10" stroke-linecap="round"/>
<path d="M38.3794 74.4048L43.9998 38.0447C44.1937 36.8085 45.7926 36.6096 46.2071 37.7706C49.1196 45.9026 54.0564 64.9022 42.0133 76.5009L38.3794 74.4048Z" fill="#B7D331"/>
<path d="M35.8655 82.9017L1.64208 96.5482C0.479227 97.0104 -0.505967 95.7366 0.285419 94.7907C5.81974 88.1529 19.6986 74.2484 35.8278 78.7094L35.8655 82.9017Z" fill="#B7D331"/>
<path d="M45.1037 80.2734L73.7066 103.471C74.681 104.261 74.0458 105.739 72.8291 105.513C64.3284 103.917 45.4052 98.5852 41.4536 82.3535L45.1037 80.2788V80.2734Z" fill="#B7D331"/>
<path d="M42.0212 80.1287L36.1245 80.6738L42.1829 145.998L48.0797 145.453L42.0212 80.1287Z" fill="#B7D331"/>
<path d="M44.6468 82.249C45.8311 78.974 44.1318 75.3606 40.8514 74.1783C37.5709 72.996 33.9516 74.6924 32.7673 77.9675C31.5831 81.2425 33.2824 84.8559 36.5628 86.0382C39.8432 87.2205 43.4625 85.5241 44.6468 82.249Z" fill="#AABC02"/>
<path d="M43.1065 81.7948C42.1752 84.2188 39.4457 85.4335 37.0177 84.5037C34.5897 83.5738 33.373 80.8488 34.3044 78.4248C35.2357 76.0008 37.9652 74.7861 40.3932 75.716C42.8212 76.6458 44.0379 79.3708 43.1065 81.7948Z" fill="white"/>
<path opacity="0.25" d="M21.2867 86.8691L11.9839 90.696" stroke="#89960B" stroke-width="0.67" stroke-miterlimit="10" stroke-linecap="round"/>
<path opacity="0.25" d="M30.9772 82.8867L24.7915 85.429" stroke="#89960B" stroke-width="0.67" stroke-miterlimit="10" stroke-linecap="round"/>
<path opacity="0.25" d="M51.0631 87.8041L46.584 84.2783" stroke="#89960B" stroke-width="0.67" stroke-miterlimit="10" stroke-linecap="round"/>
<path opacity="0.25" d="M61.2112 95.7962L53.3081 89.5723" stroke="#89960B" stroke-width="0.67" stroke-miterlimit="10" stroke-linecap="round"/>
<path opacity="0.25" d="M69.4375 102.278L64.1885 98.1396" stroke="#89960B" stroke-width="0.67" stroke-miterlimit="10" stroke-linecap="round"/>
<path opacity="0.25" d="M42.1589 59.7529L40.6084 69.6801" stroke="#89960B" stroke-width="0.67" stroke-miterlimit="10" stroke-linecap="round"/>
<path opacity="0.25" d="M43.7739 49.418L42.7402 56.0181" stroke="#89960B" stroke-width="0.67" stroke-miterlimit="10" stroke-linecap="round"/>
<path opacity="0.25" d="M35.3057 78.8279C36.0378 76.9306 38.1697 75.9793 40.0701 76.7102" stroke="#89960B" stroke-width="0.52" stroke-miterlimit="10" stroke-linecap="round"/>
<path opacity="0.25" d="M42.1912 81.4678C41.4591 83.3651 39.3272 84.3164 37.4268 83.5854" stroke="#89960B" stroke-width="0.52" stroke-miterlimit="10" stroke-linecap="round"/>
</svg>
